<?xml version="1.0" encoding="utf-8"?>
<svg width="800px" height="800px" viewBox="0 0 76 76"
     xmlns="http://www.w3.org/2000/svg" version="1.1" baseProfile="full">
  <path fill="#4CAF50" stroke="#000000" stroke-width="1"
        stroke-linejoin="round" stroke-linecap="round"
        d="M55.4875,38.3425L55.1016,35.1994L64.5307,34.0417L64.9167,37.1847L55.4875,38.3425Z
           M53.4141,28.8958L51.0608,26.7769L57.4175,19.7171L59.7708,21.836L53.4141,28.8958Z
           M54.2292,47.1079L55.4154,44.1718L64.2237,47.7306L63.0374,50.6667L54.2292,47.1079Z
           M14.25,36.4167L17.7814,34.8275L19.2981,47.9725L15.8333,47.5L14.25,36.4167Z
           M45.9166,22.1667C48.5555,26.9167,51.1944,31.6667,51.9861,36.6806C52.7778,41.6945,51.7222,46.9722,50.6666,52.25L35.4572,50.176L34.0416,54.625L26.125,54.625L24.783,48.7204L21.4945,48.272L19.8365,33.9027L45.9166,22.1667Z
           M28.1042,52.25L32.0625,52.25L32.91,49.8287L27.3079,49.0647L28.1042,52.25Z" />
</svg>
